<?xml version="1.0" encoding="UTF-8"?><svg id="a" xmlns="http://www.w3.org/2000/svg" viewBox="0 0 18 29.08"><defs><style>.b{fill:#c6c6c6;}.c{fill:#2b2b2b;}</style></defs><path class="b" d="M16.64,28.34s-.08,0-.12-.02l-7.16-4.44-.05-.02c-.16-.06-.32-.08-.49-.08s-.34,.03-.5,.09l-.05,.02L1.47,28.31s-.08,.02-.12,.02c-.16,0-.31-.09-.41-.25-.12-.2-.14-.44-.03-.66L8.42,.97c.06-.12,.23-.23,.42-.23s.35,.11,.45,.31l7.77,26.31c.14,.29,.13,.54,0,.74-.1,.16-.25,.26-.41,.26Z"/><path class="c" d="M8.84,1.32l7.73,26.16,.02,.08,.04,.08c.03,.07,.02,.12,0,.16l-6.97-4.31-.09-.06-.1-.04c-.21-.08-.43-.11-.66-.11s-.45,.04-.67,.12l-.1,.04-.09,.06L1.36,27.79s-.03-.09,0-.15l.04-.08,.02-.08L8.84,1.32m0-1.09c-.35,0-.71,.2-.9,.59L.47,27.2c-.37,.77,.17,1.63,.89,1.63,.11,0,.22-.02,.33-.06l6.82-4.42c.11-.04,.21-.06,.32-.06s.21,.02,.32,.06l7.17,4.44c.11,.04,.22,.06,.33,.06,.72,0,1.26-.87,.89-1.64L9.73,.82c-.19-.39-.54-.58-.89-.58h0Z"/></svg>